<svg xmlns="http://www.w3.org/2000/svg" width="1200" height="900" viewBox="0 0 1200 900" role="img" aria-labelledby="title desc">
  <title id="title">Voorbeeld van een dossier uit de Digitale Opname</title>
  <desc id="desc">Een fictief airco-dossier met voortgang, samenvatting, verzamelde gegevens, aandachtspunt en vervolgstap.</desc>
  <defs>
    <linearGradient id="background" x1="0" y1="0" x2="1" y2="1">
      <stop offset="0" stop-color="#f5f4ec"/>
      <stop offset="1" stop-color="#e9efe9"/>
    </linearGradient>
    <filter id="shadow" x="-20%" y="-20%" width="140%" height="150%">
      <feDropShadow dx="0" dy="24" stdDeviation="28" flood-color="#0e2d25" flood-opacity="0.18"/>
    </filter>
  </defs>

  <rect width="1200" height="900" rx="34" fill="url(#background)"/>
  <g filter="url(#shadow)">
    <rect x="72" y="64" width="1056" height="772" rx="24" fill="#ffffff"/>
  </g>

  <rect x="72" y="64" width="1056" height="126" rx="24" fill="#173f34"/>
  <rect x="72" y="166" width="1056" height="24" fill="#173f34"/>
  <circle cx="128" cy="126" r="28" fill="#e7ad52"/>
  <path d="M117 126h22M128 115v22" stroke="#173f34" stroke-width="6" stroke-linecap="round"/>
  <text x="178" y="116" fill="#ffffff" font-family="Arial, Helvetica, sans-serif" font-size="21" font-weight="700" letter-spacing="2">DIGITALE OPNAME</text>
  <text x="178" y="151" fill="#ffffff" font-family="Arial, Helvetica, sans-serif" font-size="29" font-weight="800">Airco woonkamer · DO-024</text>
  <rect x="900" y="100" width="168" height="48" rx="24" fill="#e7ad52"/>
  <text x="984" y="131" text-anchor="middle" fill="#173f34" font-family="Arial, Helvetica, sans-serif" font-size="18" font-weight="800">DEMO-DOSSIER</text>

  <text x="116" y="244" fill="#66746f" font-family="Arial, Helvetica, sans-serif" font-size="17" font-weight="700" letter-spacing="1.6">AANVRAAG</text>
  <text x="116" y="286" fill="#102d26" font-family="Arial, Helvetica, sans-serif" font-size="34" font-weight="800">Succesvol afgerond</text>
  <text x="116" y="320" fill="#66746f" font-family="Arial, Helvetica, sans-serif" font-size="19">De benodigde basisinformatie staat bij elkaar.</text>

  <g>
    <rect x="116" y="358" width="276" height="116" rx="16" fill="#f5f4ec" stroke="#d7ddd8"/>
    <text x="142" y="393" fill="#66746f" font-family="Arial, Helvetica, sans-serif" font-size="16" font-weight="700">HANDELINGEN AANVRAGER</text>
    <text x="142" y="444" fill="#173f34" font-family="Arial, Helvetica, sans-serif" font-size="38" font-weight="800">11</text>
  </g>
  <g>
    <rect x="410" y="358" width="276" height="116" rx="16" fill="#f5f4ec" stroke="#d7ddd8"/>
    <text x="436" y="393" fill="#66746f" font-family="Arial, Helvetica, sans-serif" font-size="16" font-weight="700">GERICHT VERZAMELD</text>
    <text x="436" y="444" fill="#173f34" font-family="Arial, Helvetica, sans-serif" font-size="38" font-weight="800">8 gegevens</text>
  </g>

  <line x1="742" y1="228" x2="742" y2="764" stroke="#d7ddd8" stroke-width="2"/>
  <text x="790" y="244" fill="#66746f" font-family="Arial, Helvetica, sans-serif" font-size="17" font-weight="700" letter-spacing="1.6">SAMENVATTING</text>

  <g font-family="Arial, Helvetica, sans-serif">
    <circle cx="806" cy="300" r="18" fill="#e7ad52"/>
    <path d="M798 300l6 6 11-13" fill="none" stroke="#173f34" stroke-width="4" stroke-linecap="round" stroke-linejoin="round"/>
    <text x="840" y="291" fill="#66746f" font-size="15" font-weight="700">RUIMTE</text>
    <text x="840" y="319" fill="#102d26" font-size="21" font-weight="700">Woonkamer · circa 42 m²</text>

    <circle cx="806" cy="382" r="18" fill="#e7ad52"/>
    <path d="M798 382l6 6 11-13" fill="none" stroke="#173f34" stroke-width="4" stroke-linecap="round" stroke-linejoin="round"/>
    <text x="840" y="373" fill="#66746f" font-size="15" font-weight="700">WENS</text>
    <text x="840" y="401" fill="#102d26" font-size="21" font-weight="700">Koelen en bijverwarmen</text>

    <circle cx="806" cy="464" r="18" fill="#e7ad52"/>
    <path d="M798 464l6 6 11-13" fill="none" stroke="#173f34" stroke-width="4" stroke-linecap="round" stroke-linejoin="round"/>
    <text x="840" y="455" fill="#66746f" font-size="15" font-weight="700">BINNENUNIT</text>
    <text x="840" y="483" fill="#102d26" font-size="21" font-weight="700">Voorkeurswand aangegeven</text>
  </g>

  <rect x="116" y="512" width="570" height="110" rx="16" fill="#fff7e9" stroke="#e7ad52"/>
  <circle cx="150" cy="550" r="15" fill="#e7ad52"/>
  <text x="150" y="557" text-anchor="middle" fill="#173f34" font-family="Arial, Helvetica, sans-serif" font-size="19" font-weight="900">!</text>
  <text x="180" y="548" fill="#8d6227" font-family="Arial, Helvetica, sans-serif" font-size="15" font-weight="800" letter-spacing="1">AANDACHTSPUNT</text>
  <text x="180" y="582" fill="#102d26" font-family="Arial, Helvetica, sans-serif" font-size="20" font-weight="700">Plaats buitenunit nog gericht beoordelen</text>

  <rect x="116" y="652" width="952" height="112" rx="16" fill="#173f34"/>
  <text x="148" y="690" fill="#e7ad52" font-family="Arial, Helvetica, sans-serif" font-size="15" font-weight="800" letter-spacing="1.4">VERVOLGSTAP</text>
  <text x="148" y="730" fill="#ffffff" font-family="Arial, Helvetica, sans-serif" font-size="25" font-weight="800">Offerte voorbereiden of gericht opnamebezoek plannen</text>

</svg>
